HIERARCHY
ROOT Hips
{
	OFFSET	0.00	0.00	0.00
	CHANNELS 6 Xposition Yposition Zposition Zrotation Xrotation Yrotation
	JOINT Chest
	{
		OFFSET	0.000000	6.275751	0.000000
		CHANNELS 3 Zrotation Xrotation Yrotation
		JOINT Neck
		{
			OFFSET	0.000000	14.296947	0.000000
			CHANNELS 3 Zrotation Xrotation Yrotation
			JOINT Head
			{
				OFFSET	0.000000	2.637461	0.000000
				CHANNELS 3 Zrotation Xrotation Yrotation
				End Site
				{
					OFFSET	0.000000	4.499004	0.000000
				}
			}
		}
		JOINT LeftCollar
		{
			OFFSET	1.120000	11.362855	1.870000
			CHANNELS 3 Zrotation Xrotation Yrotation
			JOINT LeftUpArm
			{
				OFFSET	4.565688	2.019026	-1.821179
				CHANNELS 3 Zrotation Xrotation Yrotation
				JOINT LeftLowArm
				{
					OFFSET	0.219729	-10.348825	-0.061708
					CHANNELS 3 Zrotation Xrotation Yrotation
					JOINT LeftHand
					{
						OFFSET	0.087892	-10.352228	2.178217
						CHANNELS 3 Zrotation Xrotation Yrotation
						End Site
						{
							OFFSET	0.131837	-6.692379	1.711456
						}
					}
				}
			}
		}
		JOINT RightCollar
		{
			OFFSET	-1.120000	11.362855	1.870000
			CHANNELS 3 Zrotation Xrotation Yrotation
			JOINT RightUpArm
			{
				OFFSET	-4.708080	2.034554	-1.821179
				CHANNELS 3 Zrotation Xrotation Yrotation
				JOINT RightLowArm
				{
					OFFSET	-0.263676	-10.428555	-0.061708
					CHANNELS 3 Zrotation Xrotation Yrotation
					JOINT RightHand
					{
						OFFSET	0.000000	-10.255345	2.178217
						CHANNELS 3 Zrotation Xrotation Yrotation
						End Site
						{
							OFFSET	-0.140882	-6.671274	1.711456
						}
					}
				}
			}
		}
	}
	JOINT LeftUpLeg
	{
		OFFSET	3.910000	0.000000	0.000000
		CHANNELS 3 Zrotation Xrotation Yrotation
		JOINT LeftLowLeg
		{
			OFFSET	-0.441177	-17.569450	1.695613
			CHANNELS 3 Zrotation Xrotation Yrotation
			JOINT LeftFoot
			{
				OFFSET	-0.043946	-17.197315	-1.478076
				CHANNELS 3 Zrotation Xrotation Yrotation
				End Site
				{
					OFFSET	0.000000	-3.933155	5.233925
				}
			}
		}
	}
	JOINT RightUpLeg
	{
		OFFSET	-3.910000	0.000000	0.000000
		CHANNELS 3 Zrotation Xrotation Yrotation
		JOINT RightLowLeg
		{
			OFFSET	0.437741	-17.622387	1.695613
			CHANNELS 3 Zrotation Xrotation Yrotation
			JOINT RightFoot
			{
				OFFSET	0.000000	-17.140001	-1.478076
				CHANNELS 3 Zrotation Xrotation Yrotation
				End Site
				{
					OFFSET	0.000000	-4.038528	5.233925
				}
			}
		}
	}
}
MOTION
Frames: 7
Frame Time: 0.04166667
-6.566694	5.371678	7.996805	-7.108474	-5.422679	120.645973	0.450320	-10.357191	-4.313280	2.015655	12.047753	-13.589209	-0.756080	2.969993	-0.182123	-14.827716	8.326326	-0.732099	28.051224	-18.385538	-54.564503	-13.091369	-1.436678	11.812197	-0.120724	2.462654	-0.025630	12.995583	6.262971	-0.085213	-21.044647	-22.483849	64.637199	2.313477	-0.827635	-1.747148	-6.220677	2.469421	-1.331774	3.385394	-9.013212	42.908619	-1.311797	10.429298	0.899069	-2.849803	-7.587735	-0.247785	5.407203	-5.936236	-65.445854	1.945578	-0.378963	4.022996	-4.026886	-1.267593	5.349048	
-6.654675	5.369147	7.966570	-6.966170	-5.314602	120.421425	0.310532	-10.018397	-3.709253	2.334568	11.809151	-14.098644	-0.832384	2.910728	-0.201379	-14.440714	8.411324	-0.815246	27.675295	-19.753220	-57.519421	-13.080107	-2.347233	12.161702	-2.565097	2.474832	-0.545021	12.921085	5.906770	-0.094621	-20.758871	-23.252537	69.345322	2.447315	-1.986305	-1.895702	-3.981712	2.426737	-0.853364	2.720531	-8.145440	42.075794	-1.212038	9.072046	1.491290	-3.091390	-8.278255	-0.291235	5.137611	-5.926949	-65.193985	1.944813	-0.043615	3.960925	-4.057160	-1.279547	5.350868	
-6.745018	5.367480	7.935859	-6.815252	-5.173087	120.223595	0.192466	-9.685430	-3.137017	2.512131	11.603944	-14.533005	-0.763388	2.818181	-0.185933	-14.202413	8.490877	-0.899140	27.390686	-21.120689	-62.305027	-12.761156	-3.770820	12.226844	-4.142929	2.494415	-0.879753	12.892079	5.762336	-0.082674	-20.650259	-24.326664	74.343613	2.385352	-3.205830	-1.877288	-2.348887	2.407403	-0.503690	2.337409	-7.637733	41.444683	-1.175443	8.316009	1.753752	-3.808088	-8.586989	-0.342903	2.777605	-6.547823	-64.383133	1.910082	4.054788	3.107694	-1.363821	-1.197606	5.119288	
-6.836403	5.373405	7.898208	-6.734229	-5.001746	120.043266	0.046539	-9.484273	-2.530703	2.602793	11.463033	-14.956438	-0.653471	2.793994	-0.159441	-14.132502	8.570039	-0.969358	27.035955	-22.606792	-66.504402	-12.929380	-5.857167	13.206184	-3.772348	2.488997	-0.801203	12.869337	5.782973	0.001085	-20.699121	-25.508783	78.886314	1.863987	-4.594753	-1.420887	-1.360399	2.400592	-0.291794	1.710337	-6.882156	39.985207	-1.138945	6.915052	2.085092	-4.939449	-8.885709	-0.424476	2.523131	-6.541622	-64.006866	1.880801	4.161366	2.875534	-1.431256	-1.144098	5.126531	
-6.920713	5.382437	7.846439	-6.580313	-4.774177	119.902496	-0.933656	-8.947899	-1.638236	3.965240	11.004604	-15.716914	-0.908216	2.670320	-0.223590	-14.215466	9.284452	-0.213619	27.600874	-25.228285	-68.512657	-12.950968	-5.701218	13.245358	-5.287108	2.514390	-1.122125	14.109344	4.733892	-0.206920	-21.143223	-26.039309	81.985100	1.370650	-6.056258	-0.922172	0.237411	2.397220	0.050943	1.004008	-6.144454	38.511639	-1.182463	5.843856	1.948589	-4.850365	-9.898189	-0.503103	4.224883	-5.769559	-64.200279	1.886426	0.615411	3.359162	-4.131107	-1.183579	5.364221	
-6.999550	5.383401	7.781305	-6.335419	-4.600946	119.969299	0.010825	-9.126554	-1.542419	2.470031	11.353028	-15.566338	-0.449888	2.652254	-0.110892	-14.026628	8.236711	-1.200601	26.581827	-24.877447	-71.792320	-12.307543	-7.180900	13.166618	-5.739161	2.523610	-1.217815	12.290302	5.840291	0.369037	-20.850155	-27.986084	83.324753	0.976175	-7.695229	-0.459110	2.557712	2.409340	0.548455	0.673015	-5.513463	35.561615	-1.230014	4.952675	1.755713	-5.072002	-10.148464	-0.540931	3.756180	-5.657934	-64.032440	1.864601	1.191191	3.101977	-4.082039	-1.249498	5.355198	
-7.064463	5.371297	7.710517	-6.017275	-4.546245	120.182343	0.171030	-9.019868	-1.161718	2.475307	11.283945	-15.968242	-0.459837	2.271775	-0.116432	-14.087858	8.245857	-1.306632	26.999851	-26.143467	-77.372833	-11.159065	-8.969505	12.498438	-5.077062	2.510360	-1.077667	12.069238	5.977819	0.357032	-21.213289	-29.635914	83.903748	0.706561	-9.643329	-0.072939	5.813823	2.460290	1.244956	0.961114	-5.616512	33.606483	-1.222237	5.638355	1.832131	-5.438452	-9.990504	-0.554708	1.099573	-6.277778	-63.133411	1.756418	5.952564	1.830014	-0.418106	-0.922346	5.038087	
